<?xml version="1.0" encoding="utf-8"?>
<!-- Generator: Adobe Illustrator 23.1.0, SVG Export Plug-In . SVG Version: 6.00 Build 0)  -->
<svg version="1.0" id="Layer_1" xmlns="http://www.w3.org/2000/svg" xmlns:xlink="http://www.w3.org/1999/xlink" x="0px" y="0px"
	 viewBox="0 0 334.58 334.58" style="enable-background:new 0 0 334.58 334.58;" xml:space="preserve">
<style type="text/css">
	.st0{fill:#2C3E50;}
	.st1{opacity:0.5;}
	.st2{fill:#1D2A33;}
	.st3{clip-path:url(#SVGID_2_);}
	.st4{fill:#FFC400;}
	.st5{fill:#DE3626;}
	.st6{fill:#FF4B39;}
	.st7{fill:none;stroke:#FF0049;stroke-width:0.122;stroke-miterlimit:10;}
	.st8{fill:#FF9C00;}
</style>
<ellipse transform="matrix(0.7071 -0.7071 0.7071 0.7071 -69.2934 167.2891)" class="st0" cx="167.29" cy="167.29" rx="167.29" ry="167.29"/>
<g class="st1">
	<path class="st2" d="M182.29,14.62c42.38,0,81.07,15.77,110.55,41.74C262.18,21.58,217.3-0.38,167.29-0.38
		C74.9-0.38,0,74.52,0,166.91c0,50.01,21.95,94.89,56.74,125.55C30.77,262.98,15,224.29,15,181.91C15,89.52,89.9,14.62,182.29,14.62
		z"/>
</g>
<g>
	<defs>
		
			<ellipse id="SVGID_1_" transform="matrix(0.7071 -0.7071 0.7071 0.7071 -69.2934 167.2891)" cx="167.29" cy="167.29" rx="167.29" ry="167.29"/>
	</defs>
	<clipPath id="SVGID_2_">
		<use xlink:href="#SVGID_1_"  style="overflow:visible;"/>
	</clipPath>
	<g class="st3">
		<path class="st4" d="M80.73,101.62l26.71,261.88c0,0,8.79,18.3,65.53,18.3c0,0,37.34,0.73,54.18-16.11l28.54-262.78
			C255.69,102.91,122.12,97.83,80.73,101.62z"/>
		<path class="st5" d="M87.38,84.53l1.65-18.24c0,0-0.17-2.8,4.04-3.79c0,0,18.06-4.45,49.82-4.45c0,0,55-0.11,85.21,3.51
			c0,0,15.08,1.81,17.88,3.9c0,0,2.4,1.35,2.84,8l0.44,13.66"/>
		<path class="st6" d="M70.33,102.71c0,0,0.18-4.94,3.66-6.59c0,0,1.05-0.82,0-2.58c0,0-1.67-4.65,1.89-7.4c0,0,1.05-1.02,6.27-1.9
			c0,0,21.93-1.7,53.95-1.7l59.46,0.37c0,0,34.9,1.06,60.76,3.14c0,0,6.47,0.73,6.35,5.12c0,0-0.11,2.03-0.92,3.28
			c0,0-0.6,1.16-0.09,2.06c0,0,2.41,1.2,2.58,6.7C264.24,103.2,102.05,97.44,70.33,102.71z"/>
		<path class="st7" d="M168.21,287.72"/>
		<path class="st8" d="M169.9,162.37c0,0-65.7,0.18-56.09,68.73c0,0,4.64,51.07,54.28,55.97c52.86,1.47,59.08-54.98,59.08-54.98
			C239.82,155.2,169.9,162.37,169.9,162.37z"/>
	</g>
</g>
</svg>
