<?xml version="1.0" encoding="utf-8"?>
<!-- Generator: Adobe Illustrator 23.1.0, SVG Export Plug-In . SVG Version: 6.00 Build 0)  -->
<svg version="1.0" id="Layer_1" xmlns="http://www.w3.org/2000/svg" xmlns:xlink="http://www.w3.org/1999/xlink" x="0px" y="0px"
	 viewBox="0 0 334.58 334.95" style="enable-background:new 0 0 334.58 334.95;" xml:space="preserve">
<style type="text/css">
	.st0{fill:#2C3E50;}
	.st1{opacity:0.5;}
	.st2{fill:#1D2A33;}
	.st3{clip-path:url(#SVGID_2_);}
	.st4{fill:#C6C6C6;}
	.st5{fill:#D3DADC;}
	.st6{fill:#7D8081;}
	.st7{fill:#32383B;}
</style>
<ellipse transform="matrix(0.7071 -0.7071 0.7071 0.7071 -69.5589 167.3991)" class="st0" cx="167.29" cy="167.66" rx="167.29" ry="167.29"/>
<g class="st1">
	<path class="st2" d="M182.29,15c42.38,0,81.07,15.77,110.55,41.74C262.18,21.95,217.3,0,167.29,0C74.9,0,0,74.9,0,167.29
		c0,50.01,21.95,94.89,56.74,125.55C30.77,263.36,15,224.67,15,182.29C15,89.9,89.9,15,182.29,15z"/>
</g>
<g>
	<defs>
		
			<ellipse id="SVGID_1_" transform="matrix(0.7071 -0.7071 0.7071 0.7071 -69.5589 167.3991)" cx="167.29" cy="167.66" rx="167.29" ry="167.29"/>
	</defs>
	<clipPath id="SVGID_2_">
		<use xlink:href="#SVGID_1_"  style="overflow:visible;"/>
	</clipPath>
	<g class="st3">
		<rect x="230.44" y="274.28" class="st4" width="27.46" height="63.67"/>
		<path class="st5" d="M242.46,173.83c0,0,56.67-1.53,56.67,61.82c0,0-3.9,49-70.94,43.62c0,0-30.8-6.59-43.33-30.92
			c-2.76-5.36-3.74-15.89-3.77-25.17c-0.04-12.64,2.69-18.34,2.69-18.34S199.32,176.37,242.46,173.83z"/>
		<rect x="101.1" y="213.86" class="st4" width="27.7" height="124.09"/>
		<path class="st5" d="M112.64,103.67c0,0-54.86-1.61-54.86,65.17c0,0,3.78,51.66,68.67,45.99c0,0,29.82-6.95,41.94-32.6
			c2.67-5.65,3.62-16.75,3.65-26.54c0.03-13.32-2.61-19.33-2.61-19.33S154.4,106.34,112.64,103.67z"/>
		<path class="st6" d="M164.25,162.48c0,0,1.93-26.33-7.06-26.11c0,0-6.85-1.5-5.99,26.11c0,0,0.43,18.83,5.56,19.69
			C156.76,182.17,162.54,184.31,164.25,162.48z"/>
		<path class="st6" d="M199.48,230.87c0,0,3.84-29.11-5.15-28.89c0,0-5.81-2.62-4.96,24.99c0,0,0.28,19.08,5.42,19.94
			C194.79,246.9,197.67,249.09,199.48,230.87z"/>
		<path class="st7" d="M76.29,152.63c0,0-6.85,0.69-6.85,6.66c0,0-0.21,5.97,6.85,5.97h11.99c0,0,6.21-1.07,6.21-6.31
			c0,0,0.21-6.31-6.42-6.31H76.29z"/>
		<path class="st7" d="M266.05,217.12c0,0-6.85,0.69-6.85,6.66c0,0-0.22,5.97,6.85,5.97h11.99c0,0,6.21-1.07,6.21-6.31
			c0,0,0.21-6.31-6.42-6.31H266.05z"/>
	</g>
</g>
</svg>
