<?xml version="1.0" encoding="utf-8"?>
<!-- Generator: Adobe Illustrator 23.1.0, SVG Export Plug-In . SVG Version: 6.00 Build 0)  -->
<svg version="1.0" id="Layer_1" xmlns="http://www.w3.org/2000/svg" xmlns:xlink="http://www.w3.org/1999/xlink" x="0px" y="0px"
	 viewBox="0 0 334.58 334.95" style="enable-background:new 0 0 334.58 334.95;" xml:space="preserve">
<style type="text/css">
	.st0{fill:#2C3E50;}
	.st1{opacity:0.5;}
	.st2{fill:#1D2A33;}
	.st3{clip-path:url(#SVGID_2_);}
	.st4{fill:#F8F8F8;}
	.st5{clip-path:url(#SVGID_4_);}
	.st6{fill:#C7C7C7;}
	.st7{fill:#444444;}
	.st8{fill:#D1D1D1;}
	.st9{fill:#F7F7F7;}
</style>
<ellipse transform="matrix(0.7071 -0.7071 0.7071 0.7071 -69.5589 167.3991)" class="st0" cx="167.29" cy="167.66" rx="167.29" ry="167.29"/>
<g class="st1">
	<path class="st2" d="M182.29,15c42.38,0,81.07,15.77,110.55,41.74C262.18,21.95,217.3,0,167.29,0C74.9,0,0,74.9,0,167.29
		c0,50.01,21.95,94.89,56.74,125.55C30.77,263.36,15,224.67,15,182.29C15,89.9,89.9,15,182.29,15z"/>
</g>
<g>
	<defs>
		
			<ellipse id="SVGID_1_" transform="matrix(0.7071 -0.7071 0.7071 0.7071 -69.5589 167.3991)" cx="167.29" cy="167.66" rx="167.29" ry="167.29"/>
	</defs>
	<clipPath id="SVGID_2_">
		<use xlink:href="#SVGID_1_"  style="overflow:visible;"/>
	</clipPath>
	<g class="st3">
		<g>
			<path d="M270.84,371.53c0,7.27-5.9,13.17-13.17,13.17H76.76c-7.28,0-13.17-5.9-13.17-13.17V90.98c0-7.28,5.9-13.17,13.17-13.17
				h180.9c7.28,0,13.17,5.9,13.17,13.17V371.53z"/>
			<rect x="76.43" y="108.37" class="st4" width="184.01" height="245.15"/>
			<path class="st4" d="M160.72,370.31c0-4.17,3.38-7.54,7.54-7.54c4.16,0,7.54,3.38,7.54,7.54c0,4.17-3.38,7.54-7.54,7.54
				C164.09,377.86,160.72,374.48,160.72,370.31z"/>
			<path class="st4" d="M170.31,93.67c0,1.27-1.03,2.31-2.31,2.31c-1.28,0-2.31-1.03-2.31-2.31c0-1.28,1.03-2.31,2.31-2.31
				C169.28,91.36,170.31,92.39,170.31,93.67z"/>
		</g>
		<g>
			<defs>
				<rect id="SVGID_3_" x="76.43" y="108.37" width="184.01" height="245.15"/>
			</defs>
			<clipPath id="SVGID_4_">
				<use xlink:href="#SVGID_3_"  style="overflow:visible;"/>
			</clipPath>
			<g class="st5">
				<g>
					<path class="st6" d="M76.45,156.02v197.55c3,2.15,7,4.2,10,6.12v-2.67h122v6H93.05c22.82,12,48.52,18.12,75.85,18.12
						c33.81,0,65.55-9.96,91.55-27.13v-198H76.45z M86.45,165.02h35v8h-35V165.02z M192.45,250.02v20h-48v-20H192.45z M86.45,250.02
						h50v20h-50V250.02z M86.45,281.02h80v31h-80V281.02z M208.45,352.02h-122v-4h122V352.02z M208.45,343.02h-122v-7h122V343.02z
						 M208.45,331.02h-122v-6h122V331.02z M250.45,312.02h-79v-31h79V312.02z M250.45,270.02h-50v-20h50V270.02z"/>
					<rect x="76.45" y="128.02" class="st7" width="184" height="48"/>
					<rect x="86.45" y="250.02" class="st7" width="50" height="20"/>
					<rect x="144.45" y="250.02" class="st7" width="48" height="20"/>
					<rect x="200.45" y="250.02" class="st7" width="50" height="20"/>
					<rect x="86.45" y="281.02" class="st7" width="80" height="31"/>
					<rect x="171.45" y="281.02" class="st7" width="79" height="31"/>
					<rect x="86.45" y="325.02" class="st7" width="122" height="6"/>
					<rect x="86.45" y="336.02" class="st7" width="122" height="7"/>
					<rect x="86.45" y="146.02" class="st6" width="74" height="5"/>
					<rect x="86.45" y="156.02" class="st6" width="74" height="6"/>
					<rect x="86.45" y="348.02" class="st7" width="122" height="4"/>
					<rect x="86.45" y="357.02" class="st7" width="122" height="6"/>
				</g>
			</g>
		</g>
		<g>
			<path class="st8" d="M76.45,128.02v-16.17c0-1.86,1.46-2.83,3.32-2.83h177.5c1.86,0,3.18,0.96,3.18,2.83v16.17H76.45z"/>
			<path class="st9" d="M203.45,122.27c0,0.48-0.67,0.74-1.29,0.74H81.73c-0.62,0-1.28-0.27-1.28-0.74v-3.88
				c0-0.48,0.65-2.38,1.28-2.38h120.43c0.63,0,1.29,1.9,1.29,2.38V122.27z"/>
			<path class="st9" d="M246.45,122.27c0,0.48-1.06,0.74-1.26,0.74h-38.7c-0.2,0-0.04-0.27-0.04-0.74v-3.88
				c0-0.48-0.16-2.38,0.04-2.38h38.7c0.2,0,1.26,1.9,1.26,2.38V122.27z"/>
			<path class="st9" d="M252.45,121.55c0,0.42,0.33,0.46-0.13,0.46h-3.98c-0.46,0-0.9-0.04-0.9-0.46v-4.11
				c0-0.42,0.44-1.43,0.9-1.43h3.98c0.46,0,0.13,1.01,0.13,1.43V121.55z"/>
		</g>
		<rect x="86.63" y="190.15" class="st7" width="163.58" height="41.11"/>
	</g>
</g>
</svg>
