<?xml version="1.0" encoding="utf-8"?>
<!-- Generator: Adobe Illustrator 23.1.0, SVG Export Plug-In . SVG Version: 6.00 Build 0)  -->
<svg version="1.0" id="Layer_1" xmlns="http://www.w3.org/2000/svg" xmlns:xlink="http://www.w3.org/1999/xlink" x="0px" y="0px"
	 viewBox="0 0 333.58 333.62" style="enable-background:new 0 0 333.58 333.62;" xml:space="preserve">
<style type="text/css">
	.st0{fill:#2C3E50;}
	.st1{fill:#1D2A33;}
	.st2{clip-path:url(#SVGID_2_);}
	.st3{fill:#F9F9F9;}
	.st4{fill:#D3D3D3;}
	.st5{fill:#E74C3C;}
	.st6{fill:#F1C40F;}
	.st7{fill:#1ABC9C;}
	.st8{clip-path:url(#SVGID_4_);}
	.st9{fill:#C9C9C9;}
	.st10{fill:#444444;}
</style>
<ellipse transform="matrix(0.7071 -0.7071 0.7071 0.7071 -69.2063 166.9836)" class="st0" cx="166.96" cy="167.03" rx="166.61" ry="166.61"/>
<g>
	<path class="st1" d="M182.39,15.1c42.38,0,80.97,15.67,110.45,41.64C262.18,21.95,217.3,0,167.29,0C74.9,0,0,74.9,0,167.29
		c0,50.01,21.95,94.89,56.74,125.55C30.77,263.36,15,224.67,15,182.29C15,89.9,90,15.1,182.39,15.1z"/>
</g>
<g>
	<defs>
		
			<ellipse id="SVGID_1_" transform="matrix(0.7071 -0.7071 0.7071 0.7071 -69.2063 166.9836)" cx="166.96" cy="167.03" rx="166.61" ry="166.61"/>
	</defs>
	<clipPath id="SVGID_2_">
		<use xlink:href="#SVGID_1_"  style="overflow:visible;"/>
	</clipPath>
	<g class="st2">
		<path class="st3" d="M348.45,349.2c0,3.77-3.05,6.82-6.82,6.82H76.27c-3.77,0-6.82-3.05-6.82-6.82V83.84
			c0-3.77,3.05-6.82,6.82-6.82h265.36c3.77,0,6.82,3.05,6.82,6.82V349.2z"/>
		<path class="st4" d="M69.45,105.02V82.13c0-2.83,2.29-5.12,5.11-5.12H343.6c2.82,0,4.85,2.29,4.85,5.12v22.88H69.45z"/>
		<path class="st5" d="M80.15,83.81c0,1.2-0.97,2.17-2.17,2.17c-1.2,0-2.17-0.97-2.17-2.17c0-1.2,0.97-2.17,2.17-2.17
			C79.18,81.64,80.15,82.61,80.15,83.81z"/>
		<path class="st6" d="M87.31,83.81c0,1.2-0.97,2.17-2.17,2.17c-1.2,0-2.17-0.97-2.17-2.17c0-1.2,0.97-2.17,2.17-2.17
			C86.34,81.64,87.31,82.61,87.31,83.81z"/>
		<path class="st7" d="M94.47,83.81c0,1.2-0.97,2.17-2.17,2.17c-1.2,0-2.17-0.97-2.17-2.17c0-1.2,0.97-2.17,2.17-2.17
			C93.5,81.64,94.47,82.61,94.47,83.81z"/>
		<g>
			<defs>
				<path id="SVGID_3_" d="M348.45,362.2c0,3.77-3.05,6.82-6.82,6.82H76.27c-3.77,0-6.82-3.05-6.82-6.82V96.83
					c0-3.77,3.05-6.82,6.82-6.82h265.36c3.77,0,6.82,3.05,6.82,6.82V362.2z"/>
			</defs>
			<clipPath id="SVGID_4_">
				<use xlink:href="#SVGID_3_"  style="overflow:visible;"/>
			</clipPath>
			<g class="st8">
				<path class="st9" d="M78.45,105.02v279.11c4,3.03,9,5.91,14,8.62v-3.73h172v8H101.66c32.13,17,68.36,25.73,106.85,25.73
					c47.61,0,91.94-13.81,128.94-37.99V105.02H78.45z M92.45,119.02h49v11h-49V119.02z M241.45,237.02v30h-67v-30H241.45z
					 M92.45,237.02h71v30h-71V237.02z M92.45,283.02h112v43h-112V283.02z M264.45,382.02h-172v-7h172V382.02z M264.45,368.02h-172
					v-9h172V368.02z M264.45,352.02h-172v-7h172V352.02z M323.45,326.02h-112v-43h112V326.02z M323.45,267.02h-71v-30h71V267.02z"/>
				<rect x="78.45" y="105.02" class="st10" width="259" height="70"/>
				<rect x="92.45" y="237.02" class="st10" width="71" height="30"/>
				<rect x="174.45" y="237.02" class="st10" width="67" height="30"/>
				<rect x="252.45" y="237.02" class="st10" width="71" height="30"/>
				<rect x="92.45" y="283.02" class="st10" width="112" height="43"/>
				<rect x="211.45" y="283.02" class="st10" width="112" height="43"/>
				<rect x="92.45" y="345.02" class="st10" width="172" height="7"/>
				<rect x="92.45" y="359.02" class="st10" width="172" height="9"/>
				<rect x="92.45" y="132.02" class="st9" width="105" height="7"/>
				<rect x="92.45" y="146.02" class="st9" width="105" height="8"/>
				<rect x="92.45" y="375.02" class="st10" width="172" height="7"/>
				<rect x="92.45" y="389.02" class="st10" width="172" height="8"/>
			</g>
		</g>
		<path class="st3" d="M261.45,97.94c0,0.72-0.45,1.07-1.39,1.07H77.53c-0.95,0-2.08-0.35-2.08-1.07v-5.88
			c0-0.72,1.13-2.04,2.08-2.04h182.53c0.95,0,1.39,1.32,1.39,2.04V97.94z"/>
		<path class="st3" d="M326.45,97.94c0,0.72-0.86,1.07-1.16,1.07h-58.65c-0.3,0-1.18-0.35-1.18-1.07v-5.88
			c0-0.72,0.88-2.04,1.18-2.04h58.65c0.3,0,1.16,1.32,1.16,2.04V97.94z"/>
		<path class="st3" d="M337.45,97.71c0,0.72-0.59,1.31-1.31,1.31h-6.38c-0.72,0-1.31-0.59-1.31-1.31v-6.38
			c0-0.72,0.59-1.31,1.31-1.31h6.38c0.72,0,1.31,0.59,1.31,1.31V97.71z"/>
	</g>
</g>
</svg>
