<?xml version="1.0" encoding="utf-8"?>
<!-- Generator: Adobe Illustrator 23.1.0, SVG Export Plug-In . SVG Version: 6.00 Build 0)  -->
<svg version="1.0" id="Layer_1" xmlns="http://www.w3.org/2000/svg" xmlns:xlink="http://www.w3.org/1999/xlink" x="0px" y="0px"
	 viewBox="0 0 334.58 334.95" style="enable-background:new 0 0 334.58 334.95;" xml:space="preserve">
<style type="text/css">
	.st0{fill:#2C3E50;}
	.st1{opacity:0.5;}
	.st2{fill:#1D2A33;}
	.st3{clip-path:url(#SVGID_2_);}
	.st4{fill:#B5B5B5;}
	.st5{fill:#4B4B4B;}
	.st6{fill:#F8F8F8;}
	.st7{clip-path:url(#SVGID_4_);}
	.st8{fill:#F7F7F7;}
	.st9{fill:#D1D1D1;}
	.st10{fill:#E54C3C;}
	.st11{fill:#EFC211;}
	.st12{fill:#1DBA9A;}
	.st13{clip-path:url(#SVGID_6_);}
	.st14{fill:#C7C7C7;}
	.st15{fill:#444444;}
</style>
<ellipse transform="matrix(0.7071 -0.7071 0.7071 0.7071 -69.5589 167.3991)" class="st0" cx="167.29" cy="167.66" rx="167.29" ry="167.29"/>
<g class="st1">
	<path class="st2" d="M182.29,15c42.38,0,81.07,15.77,110.55,41.74C262.18,21.95,217.3,0,167.29,0C74.9,0,0,74.9,0,167.29
		c0,50.01,21.95,94.89,56.74,125.55C30.77,263.36,15,224.67,15,182.29C15,89.9,89.9,15,182.29,15z"/>
</g>
<g>
	<defs>
		
			<ellipse id="SVGID_1_" transform="matrix(0.7071 -0.7071 0.7071 0.7071 -69.5589 167.3991)" cx="167.29" cy="167.66" rx="167.29" ry="167.29"/>
	</defs>
	<clipPath id="SVGID_2_">
		<use xlink:href="#SVGID_1_"  style="overflow:visible;"/>
	</clipPath>
	<g class="st3">
		<g>
			<path d="M366.77,264.33c0,3.49-2.83,6.32-6.32,6.32H96.29c-3.49,0-6.32-2.83-6.32-6.32V84.62c0-3.49,2.83-6.32,6.32-6.32h264.17
				c3.49,0,6.32,2.83,6.32,6.32V264.33z"/>
			<path class="st4" d="M408.58,273.97c0,1.16-0.94,2.11-2.11,2.11H51.1c-1.16,0-2.11-0.94-2.11-2.11v-7.5
				c0-1.16,0.94-2.11,2.11-2.11h355.38c1.16,0,2.11,0.94,2.11,2.11V273.97z"/>
			<path class="st5" d="M228.79,276.08h177.69c0,0-5.75,4.75-21.68,6.71H228.79H72.77c-15.92-1.95-21.68-6.71-21.68-6.71H228.79z"/>
			<rect x="105.76" y="93.8" class="st6" width="245.95" height="154.98"/>
		</g>
		<g>
			<defs>
				<rect id="SVGID_3_" x="105.76" y="93.8" width="245.95" height="154.98"/>
			</defs>
			<clipPath id="SVGID_4_">
				<use xlink:href="#SVGID_3_"  style="overflow:visible;"/>
			</clipPath>
			<g class="st7">
				<path class="st8" d="M352.45,334c0,3.32-2.69,6.01-6.01,6.01H112.46c-3.32,0-6.01-2.69-6.01-6.01V100.03
					c0-3.32,2.69-6.01,6.01-6.01h233.97c3.32,0,6.01,2.69,6.01,6.01V334z"/>
				<path class="st9" d="M106.45,119.02V98.5c0-2.49,1.35-4.49,3.84-4.49h237.17c2.49,0,3.99,1.99,3.99,4.49v20.51H106.45z"/>
				<path class="st10" d="M115.22,99.98c0,1.06-0.86,1.91-1.91,1.91c-1.06,0-1.91-0.86-1.91-1.91c0-1.06,0.86-1.91,1.91-1.91
					C114.36,98.07,115.22,98.92,115.22,99.98z"/>
				<path class="st11" d="M121.53,99.98c0,1.06-0.86,1.91-1.91,1.91c-1.06,0-1.91-0.86-1.91-1.91c0-1.06,0.86-1.91,1.91-1.91
					C120.67,98.07,121.53,98.92,121.53,99.98z"/>
				<path class="st12" d="M127.84,99.98c0,1.06-0.86,1.91-1.91,1.91c-1.06,0-1.91-0.86-1.91-1.91c0-1.06,0.86-1.91,1.91-1.91
					C126.99,98.07,127.84,98.92,127.84,99.98z"/>
				<g>
					<defs>
						<path id="SVGID_5_" d="M352.45,344.74c0,3.47-2.77,6.28-6.18,6.28H112.63c-3.41,0-6.18-2.81-6.18-6.28V111.29
							c0-3.47,2.77-6.28,6.18-6.28h233.64c3.41,0,6.18,2.81,6.18,6.28V344.74z"/>
					</defs>
					<clipPath id="SVGID_6_">
						<use xlink:href="#SVGID_5_"  style="overflow:visible;"/>
					</clipPath>
					<g class="st13">
						<path class="st14" d="M113.45,119.02v245.71c4,2.67,8,5.21,13,7.6v-3.32h151v7H134.18c28.32,15,60.47,22.72,94.4,22.72
							c41.97,0,80.88-12.14,113.88-33.45V119.02H113.45z M126.45,131.02h43v10h-43V131.02z M257.45,235.02v26h-59v-26H257.45z
							 M126.45,235.02h62v26h-62V235.02z M126.45,276.02h98v37h-98V276.02z M277.45,363.02h-151v-6h151V363.02z M277.45,351.02h-151
							v-9h151V351.02z M277.45,336.02h-151v-6h151V336.02z M329.45,313.02h-99v-37h99V313.02z M329.45,261.02h-62v-26h62V261.02z"/>
						<rect x="113.45" y="119.02" class="st15" width="229" height="61"/>
						<rect x="126.45" y="235.02" class="st15" width="62" height="26"/>
						<rect x="198.45" y="235.02" class="st15" width="59" height="26"/>
						<rect x="267.45" y="235.02" class="st15" width="62" height="26"/>
						<rect x="126.45" y="276.02" class="st15" width="98" height="37"/>
						<rect x="230.45" y="276.02" class="st15" width="99" height="37"/>
						<rect x="126.45" y="330.02" class="st15" width="151" height="6"/>
						<rect x="126.45" y="342.02" class="st15" width="151" height="9"/>
						<rect x="126.45" y="142.02" class="st14" width="92" height="7"/>
						<rect x="126.45" y="155.02" class="st14" width="92" height="7"/>
						<rect x="126.45" y="357.02" class="st15" width="151" height="6"/>
						<rect x="126.45" y="369.02" class="st15" width="151" height="7"/>
					</g>
				</g>
				<path class="st8" d="M275.45,112.44c0,0.64-0.8,0.57-1.63,0.57H112.9c-0.83,0-2.45,0.06-2.45-0.57v-5.19
					c0-0.64,1.62-2.24,2.45-2.24h160.91c0.83,0,1.63,1.6,1.63,2.24V112.44z"/>
				<path class="st8" d="M332.45,112.44c0,0.64-0.86,0.57-1.13,0.57h-51.71c-0.27,0-1.16,0.06-1.16-0.57v-5.19
					c0-0.64,0.89-2.24,1.16-2.24h51.71c0.27,0,1.13,1.6,1.13,2.24V112.44z"/>
				<path class="st8" d="M342.45,111.95c0,0.59-0.51,1.06-1.14,1.06h-5.72c-0.63,0-1.14-0.48-1.14-1.06v-5.87
					c0-0.59,0.51-1.06,1.14-1.06h5.72c0.63,0,1.14,0.48,1.14,1.06V111.95z"/>
			</g>
		</g>
	</g>
</g>
</svg>
