<?xml version="1.0" encoding="utf-8"?>
<!-- Generator: Adobe Illustrator 23.1.0, SVG Export Plug-In . SVG Version: 6.00 Build 0)  -->
<svg version="1.0" id="Layer_1" xmlns="http://www.w3.org/2000/svg" xmlns:xlink="http://www.w3.org/1999/xlink" x="0px" y="0px"
	 viewBox="0 0 334.58 334.87" style="enable-background:new 0 0 334.58 334.87;" xml:space="preserve">
<style type="text/css">
	.st0{fill:#2C3E50;}
	.st1{opacity:0.5;fill:#1D2A33;}
	.st2{fill:#F1C40F;}
	.st3{fill:#E0DCB3;}
	.st4{fill:#E74C3C;}
	.st5{opacity:0.5;}
	.st6{fill:#1D2A33;}
</style>
<g>
	<path class="st0" d="M163.98,237.05c-44.61,0-80.77-36.16-80.77-80.77c0-44.61,36.16-80.77,80.77-80.77
		c44.61,0,80.77,36.16,80.77,80.77c0,18.66-6.34,35.83-16.97,49.5l67.9,69.03c24.28-29.04,38.9-66.43,38.9-107.23
		c0-92.39-74.9-167.29-167.29-167.29C74.9,0.29,0,75.19,0,167.58c0,92.39,74.9,167.29,167.29,167.29
		c41.13,0,78.78-14.85,107.91-39.47l-69.07-70.22C193.86,232.7,179.43,237.05,163.98,237.05z"/>
	<path class="st1" d="M298.52,271.32l-73.74-71.54c10.63-13.68,16.97-30.84,16.97-49.5c0-44.61-36.16-80.77-80.77-80.77
		c-44.61,0-80.77,36.16-80.77,80.77c0,44.61,36.16,80.77,80.77,80.77c15.45,0,29.89-4.34,42.16-11.87l73.7,73.76
		C284.24,286.68,292.3,278.76,298.52,271.32z M160.98,197.83c-26.26,0-47.56-21.29-47.56-47.56c0-26.26,21.29-47.56,47.56-47.56
		c26.26,0,47.56,21.29,47.56,47.56C208.53,176.54,187.24,197.83,160.98,197.83z"/>
	<path class="st2" d="M295.02,294.73c-0.02,0.02-0.03,0.03-0.05,0.04c-0.02,0.02-0.04,0.04-0.06,0.06L295.02,294.73z"/>
	<path class="st3" d="M295.68,274.81l-67.9-69.03c10.63-13.68,16.97-30.84,16.97-49.5c0-44.61-36.16-80.77-80.77-80.77
		c-44.61,0-80.77,36.16-80.77,80.77c0,44.61,36.16,80.77,80.77,80.77c15.45,0,29.89-4.34,42.16-11.87l69.07,70.22
		C282.61,289.14,289.46,282.25,295.68,274.81z M163.98,203.83c-26.26,0-47.56-21.29-47.56-47.56c0-26.26,21.29-47.56,47.56-47.56
		c26.26,0,47.56,21.29,47.56,47.56C211.53,182.54,190.24,203.83,163.98,203.83z"/>
	
		<ellipse transform="matrix(0.973 -0.2307 0.2307 0.973 -30.5288 41.4468)" class="st1" cx="161.98" cy="151.28" rx="47.56" ry="47.56"/>
	
		<ellipse transform="matrix(0.973 -0.2307 0.2307 0.973 -31.6283 42.0431)" class="st4" cx="163.98" cy="156.28" rx="47.56" ry="47.56"/>
</g>
<g class="st5">
	<path class="st6" d="M182.29,15c42.38,0,81.07,15.77,110.55,41.74C262.18,21.95,217.3,0,167.29,0C74.9,0,0,74.9,0,167.29
		c0,50.01,21.95,94.89,56.74,125.55C30.77,263.36,15,224.67,15,182.29C15,89.9,89.9,15,182.29,15z"/>
</g>
</svg>
