<?xml version="1.0" encoding="utf-8"?>
<!-- Generator: Adobe Illustrator 23.1.0, SVG Export Plug-In . SVG Version: 6.00 Build 0)  -->
<svg version="1.0" id="Layer_1" xmlns="http://www.w3.org/2000/svg" xmlns:xlink="http://www.w3.org/1999/xlink" x="0px" y="0px"
	 viewBox="0 0 333.58 333.65" style="enable-background:new 0 0 333.58 333.65;" xml:space="preserve">
<style type="text/css">
	.st0{fill:none;}
	.st1{fill:#231F20;}
	.st2{fill:#2C3E50;}
	.st3{opacity:0.5;fill:#1D2A33;}
	.st4{clip-path:url(#SVGID_2_);}
	.st5{fill:#F7F6E8;}
	.st6{opacity:0.2;fill:url(#SVGID_3_);}
	.st7{fill:#5DE8CE;stroke:#BCBCBC;stroke-miterlimit:10;}
	.st8{fill:#BCBCBC;}
	.st9{fill:#1D2A33;}
</style>
<pattern  x="-502.55" y="-42.98" width="48" height="48" patternUnits="userSpaceOnUse" id="_x36__dpi_10_x25_" viewBox="1.2 -49.2 48 48" style="overflow:visible;">
	<g>
		<rect x="1.2" y="-49.2" class="st0" width="48" height="48"/>
		<g>
			<circle class="st1" cx="25.2" cy="-1.2" r="1.2"/>
			<circle class="st1" cx="49.2" cy="-1.2" r="1.2"/>
			<circle class="st1" cx="25.2" cy="-25.2" r="1.2"/>
			<circle class="st1" cx="49.2" cy="-25.2" r="1.2"/>
			<circle class="st1" cx="37.2" cy="-13.2" r="1.2"/>
			<circle class="st1" cx="13.2" cy="-13.2" r="1.2"/>
			<circle class="st1" cx="37.2" cy="-37.2" r="1.2"/>
			<circle class="st1" cx="13.2" cy="-37.2" r="1.2"/>
		</g>
		<g>
			<circle class="st1" cx="1.2" cy="-1.2" r="1.2"/>
			
				<ellipse transform="matrix(0.1602 -0.9871 0.9871 0.1602 25.8827 -19.9789)" class="st1" cx="1.2" cy="-25.2" rx="1.2" ry="1.2"/>
		</g>
		<g>
			<circle class="st1" cx="25.2" cy="-49.2" r="1.2"/>
			<circle class="st1" cx="49.2" cy="-49.2" r="1.2"/>
		</g>
		<g>
			
				<ellipse transform="matrix(0.1602 -0.9871 0.9871 0.1602 49.5728 -40.1345)" class="st1" cx="1.2" cy="-49.2" rx="1.2" ry="1.2"/>
		</g>
	</g>
</pattern>
<ellipse transform="matrix(0.7071 -0.7071 0.7071 0.7071 -69.2068 166.9838)" class="st2" cx="166.96" cy="167.03" rx="166.61" ry="166.61"/>
<rect x="59.45" y="124.02" class="st3" width="13" height="117"/>
<g>
	<defs>
		
			<ellipse id="SVGID_1_" transform="matrix(0.7071 -0.7071 0.7071 0.7071 -69.2068 166.9838)" cx="166.96" cy="167.03" rx="166.61" ry="166.61"/>
	</defs>
	<clipPath id="SVGID_2_">
		<use xlink:href="#SVGID_1_"  style="overflow:visible;"/>
	</clipPath>
	<g class="st4">
		<rect x="109.45" y="116.02" class="st3" width="175" height="233"/>
		<rect x="118.45" y="125.02" class="st5" width="175" height="233"/>
		<pattern  id="SVGID_3_" xlink:href="#_x36__dpi_10_x25_" patternTransform="matrix(1 0 0 1 3 0)">
		</pattern>
		<rect x="131.45" y="134.02" class="st6" width="149" height="215"/>
	</g>
</g>
<g>
	<rect x="63.95" y="161.52" class="st7" width="13" height="84"/>
	<rect x="63.95" y="128.52" class="st7" width="13" height="31"/>
	<g>
		<path class="st8" d="M77.45,138.02v12h4v35h-4v5h6v-52H77.45z M81.45,189.02h-3v-3h3V189.02z"/>
	</g>
</g>
<g>
	<path class="st9" d="M182.39,15.1c42.38,0,80.97,15.67,110.45,41.64C262.18,21.95,217.3,0,167.29,0C74.9,0,0,74.9,0,167.29
		c0,50.01,21.95,94.89,56.74,125.55C30.77,263.36,15,224.67,15,182.29C15,89.9,90,15.1,182.39,15.1z"/>
</g>
</svg>
